<svg width="30" height="20" viewBox="0 0 30 20" fill="none" xmlns="http://www.w3.org/2000/svg">
<path fill-rule="evenodd" clip-rule="evenodd" d="M14.4379 0.0374271C14.1296 0.108715 13.7545 0.255994 13.4352 0.431168C13.2331 0.542019 6.91215 4.99648 6.41226 5.38034C6.33824 5.43715 6.40398 5.48984 8.48652 7.0426C9.66938 7.92456 10.6651 8.65979 10.6992 8.67641C10.7466 8.69949 11.1328 8.45143 12.333 7.62705C13.1974 7.03326 13.9919 6.50924 14.0984 6.46253C14.7159 6.19167 15.2301 6.24232 15.9103 6.64094C16.0328 6.71271 18.1759 8.24646 20.6728 10.0493L25.2126 13.3271L27.4864 11.6622C29.6899 10.0487 29.7578 9.99543 29.6836 9.93826C29.6415 9.9058 26.7026 7.78162 23.1529 5.21786C16.2056 0.200312 16.3532 0.300771 15.623 0.0951497C15.2723 -0.0036318 14.7298 -0.0300316 14.4379 0.0374271Z" fill="#E5E5E5"/>
<path fill-rule="evenodd" clip-rule="evenodd" d="M15.263 19.9626C15.5713 19.8913 15.9464 19.744 16.2658 19.5688C16.4679 19.458 22.7888 15.0035 23.2887 14.6197C23.3627 14.5628 23.2969 14.5102 21.2144 12.9574C20.0315 12.0754 19.0358 11.3402 19.0017 11.3236C18.9544 11.3005 18.5681 11.5486 17.3679 12.373C16.5035 12.9667 15.709 13.4908 15.6025 13.5375C14.985 13.8083 14.4708 13.7577 13.7906 13.3591C13.6682 13.2873 11.5251 11.7535 9.02815 9.95075L4.48829 6.67295L2.21452 8.33783C0.0109921 9.95129 -0.0569038 10.0046 0.0173378 10.0617C0.059454 10.0942 2.99828 12.2184 6.54807 14.7821C13.4954 19.7997 13.3477 19.6992 14.0779 19.9049C14.4287 20.0036 14.9711 20.03 15.263 19.9626Z" fill="#E5E5E5"/>
</svg>
